Coordinates
version=1
nRows=21
nColumns=22
inDegrees=yes

Units are S.I. units (second, meters, Newtons, ...)
If the header above contains a line with 'inDegrees', this indicates whether rotational values are in degrees (yes) or radians (no).

endheader
time	pelvis_tilt	pelvis_list	pelvis_rotation	pelvis_tx	pelvis_ty	pelvis_tz	hip_flexion_r	hip_adduction_r	hip_rotation_r	knee_angle_r	ankle_angle_r	subtalar_angle_r	hip_flexion_l	hip_adduction_l	hip_rotation_l	knee_angle_l	ankle_angle_l	subtalar_angle_l	lumbar_extension	lumbar_bending	lumbar_rotation
      2.80000000	      7.17771814	     -2.61463876	     13.65160607	     -0.39365065	      0.90182481	      0.04626850	     22.44246320	      2.43117620	    -11.85712129	    -13.87863675	     -0.67987159	      7.42857612	    -23.25195631	     -3.39026539	      0.25467478	    -17.69130055	     29.29485831	     -7.32966316	    -13.25208337	      5.29351783	    -18.45584896
      2.81000000	      7.14209597	     -3.23800891	     13.61994330	     -0.37933499	      0.90038430	      0.04652393	     22.83827776	      3.24378551	    -11.96972127	    -15.55496739	     -1.63523059	      5.78104620	    -23.54291160	     -4.17534200	      0.23801581	    -18.60403705	     28.47783519	     -6.83816430	    -12.80548399	      5.99409437	    -18.26788312
      2.82000000	      7.06184015	     -3.88893203	     13.55244182	     -0.36475673	      0.89923435	      0.04683195	     23.25495978	      4.08339914	    -12.02054776	    -17.27741268	     -2.61779471	      4.06762119	    -23.73570473	     -4.96516377	      0.19690369	    -19.60540274	     27.38433517	     -6.26745248	    -12.28043986	      6.70505478	    -18.05006337
      2.83000000	      6.96933289	     -4.53113352	     13.45036162	     -0.34999700	      0.89845196	      0.04719064	     23.63183915	      4.93102248	    -11.97678101	    -18.97890732	     -3.42586887	      2.40761683	    -23.83776684	     -5.73144945	      0.15569387	    -20.73996596	     25.91305708	     -5.60087485	    -11.73799257	      7.39624623	    -17.83874014
      2.84000000	      6.86557461	     -5.17276423	     13.31725263	     -0.33506901	      0.89802776	      0.04759334	     23.95951955	      5.80211002	    -11.82063019	    -20.62775197	     -3.99300345	      0.94805362	    -23.84968459	     -6.48857471	      0.10805053	    -21.98255979	     24.12847519	     -4.82757596	    -11.17430505	      8.07436978	    -17.60617091
      2.85000000	      6.79644141	     -5.77507067	     13.19586930	     -0.32010134	      0.89803932	      0.04799516	     24.14670083	      6.67033854	    -11.54230154	    -22.14826416	     -4.18715737	     -0.30840386	    -23.76846278	     -7.22633119	      0.11146610	    -23.39552809	     21.93643291	     -3.91079417	    -10.66583664	      8.70998656	    -17.41461783
      2.86000000	      6.76450555	     -6.33391059	     13.08448981	     -0.30513721	      0.89846429	      0.04837517	     24.18036060	      7.52730589	    -11.19581638	    -23.51865264	     -4.03002427	     -1.30534841	    -23.59230455	     -7.93413575	      0.20370696	    -24.95991078	     19.37144374	     -2.88034596	    -10.21694478	      9.30093805	    -17.23820900
      2.87000000	      6.79616924	     -6.83219927	     13.02830491	     -0.29026170	      0.89929267	      0.04868172	     24.02384342	      8.33529498	    -10.88131986	    -24.72835515	     -3.50730015	     -2.08507295	    -23.31110477	     -8.62032167	      0.42942020	    -26.70436594	     16.46166408	     -1.73032146	     -9.86539051	      9.83280917	    -17.09910398
      2.88000000	      6.89424779	     -7.29904603	     13.04006236	     -0.27555204	      0.90046787	      0.04889759	     23.66090692	      9.11753910	    -10.63650203	    -25.72014685	     -2.74501778	     -2.68805768	    -22.88647806	     -9.31685748	      0.79109818	    -28.66661824	     13.31764430	     -0.52713811	     -9.61093488	     10.34510647	    -17.01037043
      2.89000000	      7.03404502	     -7.61842034	     13.11770407	     -0.26117090	      0.90192694	      0.04900020	     23.13626551	      9.73172565	    -10.46818263	    -26.57804748	     -1.76179597	     -3.06120890	    -22.29375570	     -9.87746676	      1.40580166	    -30.83433979	      9.97857029	      0.57683229	     -9.47465607	     10.69426330	    -16.97453956
      2.90000000	      7.20921306	     -7.89970511	     13.28569550	     -0.24710812	      0.90355737	      0.04898899	     22.45415838	     10.28178614	    -10.44238497	    -27.21919949	     -0.68583090	     -3.33052388	    -21.48928367	    -10.42336383	      2.21705264	    -33.23326946	      6.66126126	      1.63835815	     -9.41273056	     11.00988219	    -16.97298346
      2.91000000	      7.38733022	     -8.15090342	     13.51151240	     -0.23340434	      0.90525880	      0.04892620	     21.65953862	     10.78850022	    -10.48571057	    -27.64308230	      0.40921982	     -3.54517448	    -20.44771162	    -10.93524455	      3.18579223	    -35.84426001	      3.52236465	      2.67014255	     -9.39609651	     11.28789196	    -16.95892403
      2.92000000	      7.57536257	     -8.31600252	     13.84227448	     -0.22019016	      0.90698628	      0.04870679	     20.78298491	     11.15208415	    -10.72384502	    -27.93551587	      1.51547978	     -3.65038390	    -19.15600143	    -11.35793478	      4.34230011	    -38.67605104	      0.75529615	      3.41472348	     -9.45661314	     11.47660444	    -17.01399815
      2.93000000	      7.74903341	     -8.46412341	     14.24264619	     -0.20743367	      0.90863871	      0.04842018	     19.86980577	     11.46445342	    -11.09998322	    -28.08292931	      2.54906344	     -3.72725639	    -17.60007871	    -11.75510003	      5.55119065	    -41.69445394	     -1.50700890	      4.03129912	     -9.55072210	     11.64595196	    -17.07863547
      2.94000000	      7.91220253	     -8.61738288	     14.70350764	     -0.19509778	      0.91021625	      0.04810279	     18.91042145	     11.76431221	    -11.59445366	    -28.05472294	      3.47946855	     -3.77437520	    -15.81044617	    -12.15032707	      6.75269308	    -44.83058982	     -3.15517570	      4.44460796	     -9.67574770	     11.81535589	    -17.14355006
      2.95000000	      8.03187086	     -8.80008736	     15.18093074	     -0.18313375	      0.91164945	      0.04782847	     17.96983033	     12.08761010	    -12.15067566	    -27.89739669	      4.29222133	     -3.83355954	    -13.78680013	    -12.55472089	      7.87282093	    -48.01030133	     -4.16245488	      4.78080628	     -9.78358536	     12.00021960	    -17.14560536
      2.96000000	      8.09991698	     -9.00467147	     15.63421755	     -0.17148834	      0.91295144	      0.04768032	     17.05854805	     12.45258519	    -12.66277650	    -27.62396530	      4.99376692	     -3.91692943	    -11.56106770	    -12.96505187	      8.83836676	    -51.15639093	     -4.55315503	      4.99991569	     -9.86715949	     12.18197098	    -17.11787222
      2.97000000	      8.18853905	     -9.24491477	     16.06555886	     -0.16001895	      0.91428459	      0.04760962	     16.07543034	     12.88705121	    -13.19016943	    -27.19383631	      5.53980236	     -3.98097983	     -9.27698848	    -13.40659632	      9.67174063	    -54.14536229	     -4.34414421	      5.02226360	     -9.98378809	     12.39684676	    -16.98619872
      2.98000000	      8.19014762	     -9.47666271	     16.37944103	     -0.14869584	      0.91554044	      0.04779708	     15.14236350	     13.36201624	    -13.50230329	    -26.66855222	      6.02917758	     -4.08057038	     -6.86436753	    -13.79767695	     10.31087240	    -56.94273595	     -3.73175889	      4.79499664	    -10.03419463	     12.54771198	    -16.77617295
      2.99000000	      8.20041631	     -9.70060148	     16.58078535	     -0.13739816	      0.91691569	      0.04817751	     14.13134301	     13.88629836	    -13.67946775	    -26.02113795	      6.40372032	     -4.17356948	     -4.49008062	    -14.16701349	     10.76686961	    -59.45799794	     -2.77067792	      4.30019834	    -10.11208079	     12.66530520	    -16.42815897
      3.00000000	      8.18737384	     -9.87506648	     16.62055622	     -0.12609627	      0.91840131	      0.04879700	     13.07466706	     14.40863346	    -13.65530548	    -25.30265886	      6.75736384	     -4.27562351	     -2.17049915	    -14.45881989	     11.01503877	    -61.66228822	     -1.56147872	      3.39698517	    -10.19707620	     12.68858366	    -15.92601199
